<svg xmlns="http://www.w3.org/2000/svg" version="1.1" xmlns:xlink="http://www.w3.org/1999/xlink" xmlns:svgjs="http://svgjs.dev/svgjs" width="2000" height="2024" viewBox="0 0 2000 2024"><g transform="matrix(1,0,0,1,1.7678688524587187,0.8194331983804659)"><svg viewBox="0 0 244 247" data-background-color="#ffffff" preserveAspectRatio="xMidYMid meet" height="2024" width="2000" xmlns="http://www.w3.org/2000/svg" xmlns:xlink="http://www.w3.org/1999/xlink"><g id="tight-bounds" transform="matrix(1,0,0,1,-0.21567999999996346,-0.09999999999999432)"><svg viewBox="0 0 244.43135999999996 247.2" height="247.2" width="244.43135999999996"><g><svg></svg></g><g><svg viewBox="0 0 244.43135999999996 247.2" height="247.2" width="244.43135999999996"><g transform="matrix(1,0,0,1,0,106.0158788295204)"><svg viewBox="0 0 244.43135999999996 35.16824234095918" height="35.16824234095918" width="244.43135999999996"><g><svg viewBox="0 0 244.43135999999996 35.16824234095918" height="35.16824234095918" width="244.43135999999996"><g><svg viewBox="0 0 244.43135999999996 35.16824234095918" height="35.16824234095918" width="244.43135999999996"><g><svg viewBox="0 0 244.43135999999996 35.16824234095918" height="35.16824234095918" width="244.43135999999996"><g><svg viewBox="0 0 244.43135999999996 35.16824234095918" height="35.16824234095918" width="244.43135999999996"><g><svg viewBox="0 0 244.43135999999996 35.16824234095918" height="35.16824234095918" width="244.43135999999996"><g transform="matrix(1,0,0,1,0,0)"><svg width="244.43135999999996" viewBox="4.88 -34.93 328.89 47.33" height="35.16824234095918" data-palette-color="#111111"><path d="M16.45 0.65L16.45 0.65Q14.1 0.65 12.19-0.61 10.28-1.88 9.14-4.35 8-6.83 8-10.43L8-10.43 9.63-10.43Q9.63-8.33 10.54-6.8 11.45-5.28 12.88-4.46 14.3-3.65 15.85-3.65L15.85-3.65Q17.7-3.65 19.19-4.67 20.68-5.7 21.56-7.61 22.45-9.53 22.45-12.13L22.45-12.13Q22.45-14.7 21.58-16.56 20.7-18.43 19.2-19.44 17.7-20.45 15.8-20.45L15.8-20.45Q14.2-20.45 12.79-19.68 11.38-18.9 10.5-17.39 9.63-15.88 9.63-13.7L9.63-13.7 8-13.7Q8-17.23 9.1-19.68 10.2-22.13 12.16-23.41 14.13-24.7 16.78-24.7L16.78-24.7Q19.65-24.7 22.04-23.16 24.43-21.63 25.86-18.8 27.3-15.98 27.3-12.13L27.3-12.13Q27.3-8.25 25.83-5.39 24.35-2.53 21.89-0.94 19.43 0.65 16.45 0.65ZM8.1 0L4.88 0 4.88-34.18 9.63-34.18 9.63-5.78 8.1 0ZM51.15 0L51.15-24.13 55.92-24.13 55.92 0 51.15 0ZM34.35-8.8L34.35-24.13 39.1-24.13 39.1-9.22Q39.1-6.5 40.44-5.1 41.77-3.7 44.2-3.7L44.2-3.7Q46.25-3.7 47.81-4.78 49.37-5.85 50.26-7.83 51.15-9.8 51.15-12.5L51.15-12.5 52.67-12.5Q52.67-8.28 51.52-5.4 50.37-2.53 48.3-1.04 46.22 0.45 43.45 0.45L43.45 0.45Q40.8 0.45 38.73-0.53 36.67-1.5 35.51-3.54 34.35-5.58 34.35-8.8L34.35-8.8ZM68.42-29.18L68.42-29.18Q67-29.18 66.18-29.96 65.37-30.75 65.37-32.1L65.37-32.1Q65.37-33.4 66.18-34.16 67-34.93 68.42-34.93L68.42-34.93Q69.82-34.93 70.63-34.16 71.45-33.4 71.45-32.1L71.45-32.1Q71.45-30.75 70.63-29.96 69.82-29.18 68.42-29.18ZM70.8 0L66.05 0 66.05-24.13 70.8-24.13 70.8 0ZM85.97 0L81.22 0 81.22-34.18 85.97-34.18 85.97 0ZM104.47 0.65L104.47 0.65Q101.52 0.65 99.04-0.94 96.57-2.53 95.1-5.39 93.64-8.25 93.64-12.13L93.64-12.13Q93.64-15.98 95.08-18.8 96.52-21.63 98.89-23.16 101.27-24.7 104.17-24.7L104.17-24.7Q106.82-24.7 108.79-23.41 110.77-22.13 111.85-19.68 112.94-17.23 112.94-13.7L112.94-13.7 111.29-13.7Q111.29-15.88 110.42-17.39 109.54-18.9 108.14-19.68 106.74-20.45 105.14-20.45L105.14-20.45Q103.27-20.45 101.75-19.44 100.24-18.43 99.35-16.56 98.47-14.7 98.47-12.13L98.47-12.13Q98.47-9.53 99.35-7.61 100.24-5.7 101.75-4.67 103.27-3.65 105.12-3.65L105.12-3.65Q106.64-3.65 108.05-4.46 109.47-5.28 110.38-6.8 111.29-8.33 111.29-10.43L111.29-10.43 112.94-10.43Q112.94-6.83 111.8-4.35 110.67-1.88 108.74-0.61 106.82 0.65 104.47 0.65ZM116.07 0L112.12 0 111.29-5.78 111.29-34.18 116.07-34.18 116.07 0ZM128.56-29.18L128.56-29.18Q127.14-29.18 126.33-29.96 125.51-30.75 125.51-32.1L125.51-32.1Q125.51-33.4 126.33-34.16 127.14-34.93 128.56-34.93L128.56-34.93Q129.96-34.93 130.78-34.16 131.59-33.4 131.59-32.1L131.59-32.1Q131.59-30.75 130.78-29.96 129.96-29.18 128.56-29.18ZM130.94 0L126.19 0 126.19-24.13 130.94-24.13 130.94 0ZM162.94 0L158.21 0 158.21-14.1Q158.21-17.23 156.72-18.84 155.24-20.45 152.71-20.45L152.71-20.45Q150.71-20.45 149.22-19.36 147.74-18.28 146.92-16.19 146.11-14.1 146.11-11.1L146.11-11.1 144.41-11.1Q144.41-15.53 145.55-18.55 146.69-21.58 148.81-23.14 150.94-24.7 153.91-24.7L153.91-24.7Q156.81-24.7 158.82-23.4 160.84-22.1 161.89-19.71 162.94-17.32 162.94-14.1L162.94-14.1 162.94 0ZM146.11 0L141.36 0 141.36-24.05 145.49-24.05 146.11-18.85 146.11 0ZM180.81 12.4L180.81 12.4Q176.91 12.4 174.09 11.33 171.28 10.25 169.76 8.45 168.23 6.65 168.23 4.53L168.23 4.53Q168.23 1.83 170.21 0.39 172.18-1.05 175.23-1.05L175.23-1.05 178.31 0.4Q175.71 0.4 174.3 1.45 172.88 2.5 172.88 4.3L172.88 4.3Q172.88 6.18 174.93 7.39 176.98 8.6 180.81 8.6L180.81 8.6Q183.58 8.6 185.68 7.79 187.78 6.98 188.93 5.66 190.08 4.35 190.08 2.85L190.08 2.85Q190.08 1.83 189.35 1.11 188.61 0.4 187.11 0.4L187.11 0.4 178.31 0.4Q175.86 0.4 174-0.36 172.13-1.13 171.08-2.38 170.03-3.63 170.03-5.15L170.03-5.15Q170.03-6.65 170.88-7.74 171.73-8.83 173.13-9.39 174.53-9.95 176.21-9.95L176.21-9.95 177.28-8.3Q176.56-8.3 175.83-7.99 175.11-7.68 174.63-7.05 174.16-6.43 174.16-5.5L174.16-5.5Q174.16-4.42 175.07-3.71 175.98-3 178.31-3L178.31-3 187.11-3Q190.71-3 192.76-1.58 194.81-0.15 194.81 2.58L194.81 2.58Q194.81 5.05 193.11 7.3 191.41 9.55 188.27 10.98 185.13 12.4 180.81 12.4ZM181.33-7.23L181.33-7.23Q178.53-7.23 176.25-8.31 173.96-9.4 172.61-11.36 171.26-13.33 171.26-15.95L171.26-15.95Q171.26-18.6 172.61-20.56 173.96-22.53 176.25-23.61 178.53-24.7 181.33-24.7L181.33-24.7Q184.06-24.7 186.32-23.61 188.58-22.53 189.95-20.56 191.31-18.6 191.31-15.95L191.31-15.95Q191.31-13.33 189.95-11.36 188.58-9.4 186.32-8.31 184.06-7.23 181.33-7.23ZM181.33-10.58L181.33-10.58Q183.91-10.58 185.27-12.11 186.63-13.65 186.63-15.95L186.63-15.95Q186.63-18.35 185.27-19.83 183.91-21.3 181.33-21.3L181.33-21.3Q178.81-21.3 177.4-19.83 175.98-18.35 175.98-15.95L175.98-15.95Q175.98-13.65 177.4-12.11 178.81-10.58 181.33-10.58ZM189.51-20.85L189.51-20.85 187.28-21.93Q187.28-24.08 188.18-25.68 189.08-27.28 190.68-28.18 192.28-29.08 194.36-29.08L194.36-29.08 194.06-24.45Q191.83-24.45 190.67-23.58 189.51-22.7 189.51-20.85ZM224.33 0.65L224.33 0.65Q221.98 0.65 220.06-0.61 218.15-1.88 217.01-4.35 215.88-6.83 215.88-10.43L215.88-10.43 217.5-10.43Q217.5-8.33 218.41-6.8 219.33-5.28 220.75-4.46 222.18-3.65 223.73-3.65L223.73-3.65Q225.58-3.65 227.06-4.67 228.55-5.7 229.44-7.61 230.33-9.53 230.33-12.13L230.33-12.13Q230.33-14.7 229.45-16.56 228.58-18.43 227.08-19.44 225.58-20.45 223.68-20.45L223.68-20.45Q222.08-20.45 220.66-19.68 219.25-18.9 218.38-17.39 217.5-15.88 217.5-13.7L217.5-13.7 215.88-13.7Q215.88-17.23 216.98-19.68 218.08-22.13 220.04-23.41 222-24.7 224.65-24.7L224.65-24.7Q227.53-24.7 229.91-23.16 232.3-21.63 233.74-18.8 235.18-15.98 235.18-12.13L235.18-12.13Q235.18-8.25 233.7-5.39 232.23-2.53 229.76-0.94 227.3 0.65 224.33 0.65ZM215.98 0L212.75 0 212.75-34.18 217.5-34.18 217.5-5.78 215.98 0ZM247.57 0L242.82 0 242.82-34.18 247.57-34.18 247.57 0ZM266.4 0.65L266.4 0.65Q263.12 0.65 260.53-0.78 257.95-2.2 256.45-5.03 254.95-7.85 254.95-12L254.95-12Q254.95-16.23 256.45-19.04 257.95-21.85 260.53-23.28 263.12-24.7 266.4-24.7L266.4-24.7Q269.62-24.7 272.2-23.28 274.77-21.85 276.26-19.04 277.75-16.23 277.75-12L277.75-12Q277.75-7.85 276.26-5.03 274.77-2.2 272.2-0.78 269.62 0.65 266.4 0.65ZM266.25-3.5L266.25-3.5Q268.32-3.5 269.83-4.5 271.35-5.5 272.16-7.41 272.97-9.33 272.97-12L272.97-12Q272.97-16.1 271.31-18.35 269.65-20.6 266.52-20.6L266.52-20.6Q264.42-20.6 262.91-19.59 261.4-18.57 260.58-16.66 259.77-14.75 259.77-12L259.77-12Q259.77-7.98 261.45-5.74 263.12-3.5 266.25-3.5ZM293.84 0.65L293.84 0.65Q290.89 0.65 288.34-0.93 285.79-2.5 284.24-5.35 282.69-8.2 282.69-12.05L282.69-12.05Q282.69-16.1 284.24-18.91 285.79-21.73 288.34-23.21 290.89-24.7 293.84-24.7L293.84-24.7Q296.02-24.7 297.72-24.01 299.42-23.33 300.64-22.16 301.87-21 302.63-19.55 303.39-18.1 303.69-16.55L303.69-16.55 298.87-16.3Q298.34-18.18 297.03-19.31 295.72-20.45 293.79-20.45L293.79-20.45Q292.17-20.45 290.73-19.54 289.29-18.63 288.41-16.76 287.52-14.9 287.52-12.05L287.52-12.05Q287.52-9.4 288.34-7.53 289.17-5.65 290.59-4.65 292.02-3.65 293.79-3.65L293.79-3.65Q296.34-3.65 297.61-4.89 298.87-6.13 298.87-8.3L298.87-8.3 303.69-8.3Q303.69-5.78 302.52-3.75 301.34-1.73 299.13-0.54 296.92 0.65 293.84 0.65ZM315.92 0L311.17 0 311.17-34.18 315.92-34.18 315.92 0ZM315.24-9.3L315.24-14.28 326.67-24.05 333.19-24.05 315.24-9.3ZM333.77 0L327.97 0 316.82-15.25 321.47-16.23 333.77 0Z" opacity="1" transform="matrix(1,0,0,1,0,0)" fill="#111111" class="undefined-text-0" data-fill-palette-color="primary" id="text-0"></path></svg></g></svg></g></svg></g></svg></g><g></g></svg></g></svg></g></svg></g><path d="M0 100.016L0 1 244.431 1 244.431 100.016 241.26 100.016 241.26 4.172 3.172 4.172 3.172 100.016 0 100.016M0 147.184L0 246.2 244.431 246.2 244.431 147.184 241.26 147.184 241.26 243.028 3.172 243.028 3.172 147.184 0 147.184" fill="#111111" stroke="transparent" data-fill-palette-color="primary"></path></svg></g><defs></defs></svg><rect width="244.43135999999996" height="247.2" fill="none" stroke="none" visibility="hidden"></rect></g></svg></g></svg>